<?xml version="1.0" encoding="UTF-8"?>
<svg id="Ebene_2" xmlns="http://www.w3.org/2000/svg" viewBox="0 0 3252.05 1944.76">
  <defs>
    <style>
      .cls-1, .cls-2 {
        fill: none;
      }

      .cls-2 {
        stroke: #414833;
        stroke-dasharray: 12;
        stroke-linecap: round;
        stroke-miterlimit: 10;
        stroke-width: 5px;
      }
    </style>
  </defs>
  <g id="Ebene_2-2" data-name="Ebene_2">
    <path class="cls-1" d="M1061.3,445.48v8.39c0,22.09-17.91,40-40,40H225.67c-22.09,0-40-17.91-40-40V40c0-22.09,17.91-40,40-40h795.63c22.09,0,40,17.91,40,40v405.48Z"/>
    <path class="cls-1" d="M2465.99,445.48v8.39c0,22.09-17.91,40-40,40h-795.63c-22.09,0-40-17.91-40-40V40c0-22.09,17.91-40,40-40h795.63c22.09,0,40,17.91,40,40v405.48Z"/>
    <path class="cls-1" d="M1612.56,1128.93v8.39c0,22.09-17.91,40-40,40h-795.63c-22.09,0-40-17.91-40-40v-413.87c0-22.09,17.91-40,40-40h795.63c22.09,0,40,17.91,40,40v405.48Z"/>
    <path class="cls-1" d="M875.63,1896.37v8.39c0,22.09-17.91,40-40,40H40c-22.09,0-40-17.91-40-40v-413.87c0-22.09,17.91-40,40-40h795.63c22.09,0,40,17.91,40,40v405.48Z"/>
    <path class="cls-1" d="M3023.01,1161.6v8.39c0,22.09-17.91,40-40,40h-795.63c-22.09,0-40-17.91-40-40v-413.87c0-22.09,17.91-40,40-40h795.63c22.09,0,40,17.91,40,40v405.48Z"/>
    <path class="cls-1" d="M1936.66,1828.13v8.39c0,22.09-17.91,40-40,40h-795.63c-22.09,0-40-17.91-40-40v-413.87c0-22.09,17.91-40,40-40h795.63c22.09,0,40,17.91,40,40v405.48Z"/>
    <path class="cls-1" d="M3087.26,1896.37v8.39c0,22.09-17.91,40-40,40h-795.63c-22.09,0-40-17.91-40-40v-413.87c0-22.09,17.91-40,40-40h795.63c22.09,0,40,17.91,40,40v405.48Z"/>
    <path class="cls-2" d="M600.28,493.87l-335.06,402.94c-27.27,32.8-30.07,79.51-6.9,115.32l120,185.52c19.42,30.02,20.85,68.25,3.74,99.64l-83.72,153.59"/>
    <path class="cls-2" d="M875.63,1735.75c0-16.86,48.27-130.55,74.74-191.63,10.73-24.76,10.71-52.85-.03-77.6l-36.46-83.96c-21.22-48.87.71-105.72,49.25-127.69l171.35-77.55"/>
    <path class="cls-2" d="M1612.56,920.52l124.36-51.92c41.69-17.4,89.87-3.9,116.44,32.63l47.95,65.92c21.68,29.8,24.71,69.27,7.83,102.03l-161.49,313.47"/>
    <path class="cls-2" d="M1936.66,1629.58l35.51-39.03c40.53-44.55,111.35-42.07,148.68,5.2l90.79,114.99"/>
    <path class="cls-2" d="M3087.26,1675.36l128.94-229.35c14.27-25.38,16.45-55.8,5.96-82.95l-37.8-97.8c-13.12-33.96-6.24-72.4,17.85-99.69l22.89-25.94c44.91-50.88,25.41-130.95-37.88-155.47l-164.22-63.64"/>
    <path class="cls-2" d="M2625.58,714.1l112-171.82c48.13-73.84,17.73-173.24-63.48-207.51l-208.11-87.84"/>
  </g>
</svg>