<?xml version="1.0" encoding="UTF-8"?>
<svg id="Ebene_2" xmlns="http://www.w3.org/2000/svg" viewBox="0 0 897.36 3331.68">
  <defs>
    <style>
      .cls-1 {
        stroke-width: 22px;
      }

      .cls-1, .cls-2 {
        fill: none;
        stroke: #414833;
        stroke-linecap: round;
        stroke-miterlimit: 10;
      }

      .cls-2 {
        stroke-dasharray: 20;
        stroke-width: 11px;
      }
    </style>
  </defs>
  <g id="Ebene_2-2" data-name="Ebene_2">
    <path class="cls-1" d="M50.67,394.23c-21.94-.18-39.67-18.02-39.67-40V51c0-22.09,17.91-40,40-40h795.36c22.09,0,40,17.91,40,40v303.23c0,21.98-17.74,39.83-39.68,40"/>
    <path class="cls-1" d="M50.67,881.97c-21.94-.18-39.67-18.02-39.67-40v-303.23c0-22.09,17.91-40,40-40h795.36c22.09,0,40,17.91,40,40v303.23c0,21.98-17.74,39.83-39.68,40"/>
    <path class="cls-1" d="M50.67,1369.71c-21.94-.18-39.67-18.02-39.67-40v-303.23c0-22.09,17.91-40,40-40h795.36c22.09,0,40,17.91,40,40v303.23c0,21.98-17.74,39.83-39.68,40"/>
    <path class="cls-1" d="M50.67,1857.46c-21.94-.18-39.67-18.02-39.67-40v-303.23c0-22.09,17.91-40,40-40h795.36c22.09,0,40,17.91,40,40v303.23c0,21.98-17.74,39.83-39.68,40"/>
    <path class="cls-1" d="M50.67,2345.2c-21.94-.18-39.67-18.02-39.67-40v-303.23c0-22.09,17.91-40,40-40h795.36c22.09,0,40,17.91,40,40v303.23c0,21.98-17.74,39.83-39.68,40"/>
    <path class="cls-1" d="M50.67,2832.94c-21.94-.18-39.67-18.02-39.67-40v-303.23c0-22.09,17.91-40,40-40h795.36c22.09,0,40,17.91,40,40v303.23c0,21.98-17.74,39.83-39.68,40"/>
    <path class="cls-1" d="M50.67,3320.68c-21.94-.18-39.67-18.02-39.67-40v-303.23c0-22.09,17.91-40,40-40h795.36c22.09,0,40,17.91,40,40v303.23c0,21.98-17.74,39.83-39.68,40"/>
    <line class="cls-2" x1="448.68" y1="202.61" x2="448.68" y2="498.74"/>
    <line class="cls-2" x1="448.68" y1="690.36" x2="448.68" y2="986.48"/>
    <line class="cls-2" x1="448.68" y1="1178.1" x2="448.68" y2="1474.23"/>
    <line class="cls-2" x1="448.68" y1="1665.84" x2="448.68" y2="1961.97"/>
    <line class="cls-2" x1="448.68" y1="2153.58" x2="448.68" y2="2449.71"/>
    <line class="cls-2" x1="448.68" y1="2641.32" x2="448.68" y2="2937.45"/>
  </g>
</svg>