<?xml version="1.0" encoding="UTF-8"?>
<svg id="Ebene_2" xmlns="http://www.w3.org/2000/svg" viewBox="0 0 3299.98 1719.83">
  <defs>
    <style>
      .cls-1, .cls-2, .cls-3, .cls-4, .cls-5, .cls-6, .cls-7 {
        fill: none;
        stroke: #414833;
        stroke-linecap: round;
        stroke-miterlimit: 10;
        stroke-width: 22px;
      }

      .cls-2 {
        stroke-dasharray: 35.3 35.3;
      }

      .cls-3 {
        stroke-dasharray: 33.38 33.38;
      }

      .cls-4 {
        stroke-dasharray: 35;
      }

      .cls-5 {
        stroke-dasharray: 34.08 34.08;
      }

      .cls-6 {
        stroke-dasharray: 34.58 34.58;
      }

      .cls-7 {
        stroke-dasharray: 34.82 34.82;
      }
    </style>
  </defs>
  <g id="Ebene_2-2" data-name="Ebene_2">
    <path class="cls-1" d="M325.96,479.81h706.07c22.09,0,40-17.9,40-40V136.59c0-22.09-17.91-40-40-40H236.67c-22.09,0-40,17.91-40,40v207.35"/>
    <path class="cls-1" d="M227.77,1267.17h618.59c22.09,0,40,17.91,40,40v303.23c0,22.09-17.91,40-40,40H51c-22.09,0-40-17.91-40-40v-92"/>
    <path class="cls-1" d="M787.6,942.39c-21.94-.18-39.67-18.02-39.67-40v-303.23c0-22.09,17.91-40,40-40h795.36c22.09,0,40,17.91,40,40v303.23c0,21.98-17.74,39.83-39.68,40"/>
    <path class="cls-1" d="M1893.59,1134h13.8c22.09,0,40,17.91,40,40v303.22c0,22.1-17.91,40-40,40h-795.36c-22.1,0-40-17.9-40-40v-303.22c0-16.99,10.59-31.51,25.54-37.3"/>
    <path class="cls-1" d="M2222.5,1653.02v15.81c0,22.09,17.91,40,40,40h795.63c22.09,0,40-17.91,40-40v-303.22c0-22.1-17.91-40-40-40h-795.63c-22.09,0-40,17.9-40,40v15.8"/>
    <path class="cls-1" d="M3033.87,936.58v8.39c0,22.09-17.91,40-40,40h-795.63c-22.09,0-40-17.91-40-40v-303.23c0-22.09,17.91-40,40-40h795.63c22.09,0,40,17.91,40,40v8.39"/>
    <path class="cls-1" d="M2189.23,345.84v8.39c0,22.09-17.91,40-40,40h-795.63c-22.09,0-40-17.91-40-40V51c0-22.09,17.91-40,40-40h795.63c22.09,0,40,17.91,40,40v8.39"/>
    <g>
      <line class="cls-1" x1="313.3" y1="353.97" x2="303.38" y2="368.39"/>
      <path class="cls-7" d="M283.63,397.07l-148.47,215.63c-50.15,72.84-54.31,167.92-10.71,244.86h0c44.08,77.78,39.31,174.02-12.24,247.06l-16.19,22.94c-65.66,93.03-53.72,220.03,28.13,299.2l21.6,20.89"/>
      <line class="cls-1" x1="158.27" y1="1459.74" x2="170.85" y2="1471.91"/>
    </g>
    <g>
      <path class="cls-1" d="M886.36,1415.81h0c5.79-1.31,11.36-3.06,16.69-5.21"/>
      <path class="cls-5" d="M932.15,1393.12c29.69-24.96,44.94-65.06,36.32-105.58l-22.49-105.81c-4.83-22.72-2.24-46.38,7.4-67.51l125.22-274.64"/>
      <line class="cls-1" x1="1085.66" y1="824.09" x2="1092.92" y2="808.16"/>
    </g>
    <g>
      <line class="cls-1" x1="1623.29" y1="736.42" x2="1637.74" y2="726.55"/>
      <path class="cls-2" d="M1666.92,706.68c46.84-29.87,109.48-14.97,137.69,33.37h0c21.93,37.57,16.54,85.09-13.23,116.81l-36.82,39.23c-23.18,24.69-32.01,59.58-23.38,92.32l21.28,80.71c7.18,27.25,2.32,56.28-13.35,79.7l-125.36,187.41"/>
      <line class="cls-1" x1="1603.94" y1="1350.91" x2="1594.21" y2="1365.46"/>
    </g>
    <g>
      <path class="cls-1" d="M1947.39,1337.97h0c4.78-3.78,9.77-6.82,14.87-9.15"/>
      <path class="cls-3" d="M1994.76,1322.84c38.43,2.52,72.51,37.33,64.64,81.98l-19.67,111.58c-9.2,52.16,40.79,95.15,90.99,78.25l197.53-66.52"/>
      <line class="cls-1" x1="2344.07" y1="1522.8" x2="2360.66" y2="1517.22"/>
    </g>
    <g>
      <line class="cls-1" x1="2502.85" y1="601.74" x2="2511.21" y2="586.37"/>
      <path class="cls-6" d="M2527.74,555.99l51.87-95.34c45.14-82.97-7.22-185.38-100.91-197.37l-439.66-56.25"/>
      <line class="cls-1" x1="2021.89" y1="204.84" x2="2004.53" y2="202.62"/>
    </g>
    <path class="cls-4" d="M3098.13,1517.22l74.76-120.56c23.53-37.94,25.82-85.34,6.05-125.37l-26.04-52.74c-21.52-43.59-16.78-95.56,12.28-134.53l98.15-131.62c34.78-46.64,34.12-110.76-1.6-156.67h0c-31.36-40.3-83.5-58.37-133.08-46.11l-303.48,75.06"/>
  </g>
</svg>