<?xml version="1.0" encoding="UTF-8"?>
<svg id="Ebene_2" xmlns="http://www.w3.org/2000/svg" viewBox="0 0 875.63 3769.13">
  <defs>
    <style>
      .cls-1, .cls-2 {
        fill: none;
      }

      .cls-2 {
        stroke: #172918;
        stroke-dasharray: 10;
        stroke-miterlimit: 10;
        stroke-width: 7px;
      }
    </style>
  </defs>
  <g id="Ebene_2-2" data-name="Ebene_2">
    <path class="cls-1" d="M875.63,445.48v8.39c0,22.09-17.91,40-40,40H40c-22.09,0-40-17.91-40-40V40C0,17.91,17.91,0,40,0h795.63c22.09,0,40,17.91,40,40v405.48Z"/>
    <path class="cls-1" d="M875.63,991.36v8.39c0,22.09-17.91,40-40,40H40c-22.09,0-40-17.91-40-40v-413.87c0-22.09,17.91-40,40-40h795.63c22.09,0,40,17.91,40,40v405.48Z"/>
    <path class="cls-1" d="M875.63,1537.24v8.39c0,22.09-17.91,40-40,40H40c-22.09,0-40-17.91-40-40v-413.87c0-22.09,17.91-40,40-40h795.63c22.09,0,40,17.91,40,40v405.48Z"/>
    <path class="cls-1" d="M875.63,2083.11v8.39c0,22.09-17.91,40-40,40H40c-22.09,0-40-17.91-40-40v-413.87c0-22.09,17.91-40,40-40h795.63c22.09,0,40,17.91,40,40v405.48Z"/>
    <path class="cls-1" d="M875.63,2628.99v8.39c0,22.09-17.91,40-40,40H40c-22.09,0-40-17.91-40-40v-413.87c0-22.09,17.91-40,40-40h795.63c22.09,0,40,17.91,40,40v405.48Z"/>
    <path class="cls-1" d="M875.63,3174.87v8.39c0,22.09-17.91,40-40,40H40c-22.09,0-40-17.91-40-40v-413.87c0-22.09,17.91-40,40-40h795.63c22.09,0,40,17.91,40,40v405.48Z"/>
    <path class="cls-1" d="M875.63,3720.74v8.39c0,22.09-17.91,40-40,40H40c-22.09,0-40-17.91-40-40v-413.87c0-22.09,17.91-40,40-40h795.63c22.09,0,40,17.91,40,40v405.48Z"/>
    <line class="cls-2" x1="437.82" y1="493.87" x2="437.82" y2="545.88"/>
    <line class="cls-2" x1="437.82" y1="1039.75" x2="437.82" y2="1091.75"/>
    <line class="cls-2" x1="437.82" y1="1585.63" x2="437.82" y2="1637.63"/>
    <line class="cls-2" x1="437.82" y1="2131.5" x2="437.82" y2="2183.51"/>
    <line class="cls-2" x1="437.82" y1="2677.38" x2="437.82" y2="2729.39"/>
    <line class="cls-2" x1="437.82" y1="3223.26" x2="437.82" y2="3275.26"/>
  </g>
</svg>